# xmcd
#
# Track frame offsets: 
#        150
#        9933
#        55992
#        91109
#        134380
#        143370
#        186853
#
# Disc length: 3114 seconds
#
# Revision: 1
# Processed by: cddbd v1.5.2PL0 Copyright (c) Steve Scherf et al.
# Submitted via: ExactAudioCopy v0.99pb5
#
DISCID=4f0c2807
DTITLE=Eivind Aarset and The Sonic Codex Orchestra - Live Extracts
DYEAR=2010
DGENRE=Jazz
TTITLE0=Electromoers
TTITLE1=Electromagetic
TTITLE2=Still Changing
TTITLE3=Drobak Saray
TTITLE4=Murky Seven
TTITLE5=Sign Of Seven
TTITLE6=Bla Meis
EXTD=YEAR: 2010
EXTT0=
EXTT1=
EXTT2=
EXTT3=
EXTT4=
EXTT5=
EXTT6=
PLAYORDER=
